<?xml version="1.0" encoding="UTF-8"?>
<svg version="1.1" xmlns="http://www.w3.org/2000/svg" width="2000" height="2658">
<path d="M0 0 C2.52559771 0.62603898 5.05083759 1.25346546 7.57589722 1.88166809 C8.6353003 2.14404416 8.6353003 2.14404416 9.71610546 2.41172075 C16.40226155 4.07719894 23.01966527 5.95231552 29.6328125 7.88671875 C30.91856971 8.26039177 32.20440524 8.63379536 33.49031067 9.00695801 C36.97066933 10.01773126 40.44995338 11.03215774 43.92905807 12.0472374 C47.70018187 13.14676991 51.47233989 14.24274369 55.24438477 15.33911133 C61.7602756 17.23343972 68.27558134 19.12976864 74.79052734 21.02734375 C85.07398477 24.02239737 95.35912381 27.01165101 105.64453125 30 C109.16724567 31.02356813 112.68994884 32.04717492 116.21264648 33.07080078 C117.09246972 33.32645876 117.97229296 33.58211674 118.8787775 33.84552193 C128.86484517 36.74738141 138.85041657 39.6509473 148.8359375 42.5546875 C149.74731665 42.81970943 150.65869579 43.08473137 151.59769249 43.35778427 C158.99046391 45.5075525 166.38321029 47.65740685 173.7759552 49.80726624 C187.53803471 53.80936197 201.30018981 57.81119759 215.0625 61.8125 C215.96279308 62.074259 216.86308617 62.33601799 217.79066086 62.60570908 C242.35720999 69.74830938 266.92655801 76.88115116 291.5 84 C316.98308573 91.38236977 342.46158771 98.78041299 367.9375 106.1875 C368.83642345 106.44885616 369.73534691 106.71021233 370.66151047 106.97948837 C385.3664796 111.25488401 400.0712293 115.53103414 414.7759552 119.80726624 C428.53803471 123.80936197 442.30018981 127.81119759 456.0625 131.8125 C456.96279308 132.074259 457.86308617 132.33601799 458.79066086 132.60570908 C484.73776942 140.14970007 510.68835017 147.68159348 536.64285278 155.20010376 C562.02411827 162.55271078 587.39895467 169.92734301 612.77257156 177.3062973 C637.82398705 184.59152643 662.87822275 191.86686028 687.9375 199.125 C713.30657704 206.47286977 738.66745849 213.84861732 764.02516937 221.23561096 C787.69945749 228.13211026 811.37762663 235.01494101 835.0625 241.875 C861.97026896 249.6685347 888.87185568 257.48318136 915.77115631 265.30589294 C940.82303661 272.59128064 965.87775154 279.8667238 990.9375 287.125 C1016.30657704 294.47286977 1041.66745849 301.84861732 1067.02516937 309.23561096 C1090.69945749 316.13211026 1114.37762663 323.01494101 1138.0625 329.875 C1164.97026896 337.6685347 1191.87185568 345.48318136 1218.77115631 353.30589294 C1243.82303661 360.59128064 1268.87775154 367.8667238 1293.9375 375.125 C1319.30657704 382.47286977 1344.66745849 389.84861732 1370.02516937 397.23561096 C1393.69945779 404.13211034 1417.37767311 411.01477999 1441.0625 417.875 C1466.69155215 425.29858462 1492.31598803 432.7379322 1517.9375 440.1875 C1519.75325515 440.71542378 1521.56901036 441.24334736 1523.38476562 441.77127075 C1537.18196345 445.78280627 1550.97896687 449.79501026 1564.7759552 453.80726624 C1578.53803471 457.80936197 1592.30018981 461.81119759 1606.0625 465.8125 C1606.96279308 466.074259 1607.86308617 466.33601799 1608.79066086 466.60570908 C1631.97797854 473.34730479 1655.16742846 480.08145998 1678.36117554 486.80090332 C1690.41066818 490.29177909 1702.45962685 493.78449769 1714.50845337 497.27767181 C1717.15170152 498.04398002 1719.7949673 498.81022738 1722.43823242 499.57647705 C1733.27475517 502.71800116 1744.11082085 505.86109408 1754.9460907 509.00693703 C1759.80372118 510.41724084 1764.66152194 511.82695095 1769.51977539 513.23510742 C1774.07362408 514.5550587 1778.62697298 515.8767202 1783.17995453 517.19965935 C1784.86015796 517.68755306 1786.54053756 518.17484059 1788.22110748 518.66147041 C1790.54079592 519.33327658 1792.85982354 520.00731967 1795.17871094 520.68188477 C1795.84228859 520.87349686 1796.50586624 521.06510895 1797.18955231 521.26252747 C1802.18006429 522.71805642 1807.05747161 524.35249054 1812 526 C1812.33 582.43 1812.66 638.86 1813 697 C1844.81062753 705.54288607 1844.81062753 705.54288607 1876.63061523 714.05078125 C1882.8380127 715.72851562 1882.8380127 715.72851562 1885.76039124 716.52270508 C1887.76391091 717.06401881 1889.76909613 717.59919463 1891.77565002 718.12915039 C1915.85339227 724.49907416 1937.30595776 732.75705472 1951.1875 754.8125 C1959.10365894 768.77333466 1962.47769802 783.00279049 1962.37719816 799.00438911 C1962.38369493 800.86134916 1962.38369493 800.86134916 1962.39032295 802.75582356 C1962.39926 806.16860237 1962.39492255 809.58087934 1962.38479719 812.99362216 C1962.37707787 816.72907298 1962.38692046 820.46448684 1962.3944377 824.19993243 C1962.40525019 830.76408407 1962.40495758 837.32816208 1962.39736467 843.89231715 C1962.38605221 853.71913874 1962.39207861 863.54589829 1962.40142866 873.37271923 C1962.41685512 890.12209044 1962.41803755 906.87143566 1962.41144943 923.62081146 C1962.40482153 940.59356746 1962.40469691 957.56630488 1962.41249657 974.53906059 C1962.41298457 975.61124999 1962.41347256 976.6834394 1962.41397535 977.78811938 C1962.41598354 982.1550164 1962.41803664 986.52191338 1962.42014709 990.88881034 C1962.44154838 1035.2186806 1962.44360146 1079.54853713 1962.43809005 1123.87841125 C1962.43733434 1130.00390121 1962.43660672 1136.12939118 1962.43590808 1142.25488114 C1962.43569944 1144.07987339 1962.43569944 1144.07987339 1962.43548659 1145.94173416 C1962.43253463 1172.90170422 1962.43554676 1199.86167263 1962.43980437 1226.8216424 C1962.44038652 1230.5111335 1962.44095537 1234.2006246 1962.44152 1237.8901157 C1962.44303494 1247.78031347 1962.44456185 1257.67051125 1962.44611301 1267.56070902 C1962.4568703 1336.60565507 1962.46157095 1405.6505996 1962.45364285 1474.69554615 C1962.45342039 1476.64792428 1962.45342039 1476.64792428 1962.45319343 1478.6397444 C1962.45153442 1493.15393541 1962.44978484 1507.66812641 1962.44800042 1522.18231741 C1962.4478394 1523.49274527 1962.44767837 1524.80317313 1962.44751247 1526.15331093 C1962.44620467 1536.78862672 1962.44620467 1536.78862672 1962.44555128 1542.05174482 C1962.43515902 1625.87898893 1962.4429275 1709.70620587 1962.46655273 1793.53344727 C1962.47249608 1814.65650587 1962.47838761 1835.77956448 1962.48396206 1856.90262318 C1962.48430583 1858.20322992 1962.4846496 1859.50383666 1962.48500379 1860.84385573 C1962.49553011 1900.9241184 1962.50112512 1941.00437931 1962.5015192 1981.08464336 C1962.50153199 1982.34283682 1962.50154477 1983.60103028 1962.50155794 1984.89735082 C1962.50178622 2012.51648782 1962.5007802 2040.13562468 1962.49864888 2067.7547616 C1962.49789411 2077.63710203 1962.49721591 2087.51944246 1962.49656873 2097.40178289 C1962.49640604 2099.86027874 1962.49623838 2102.31877458 1962.49606572 2104.77727042 C1962.49334379 2143.96159398 1962.50190193 2183.1459048 1962.51591982 2222.33022561 C1962.53032256 2262.88765673 1962.52988369 2303.44506361 1962.5125451 2344.0024939 C1962.5107409 2348.35724132 1962.50900071 2352.71198876 1962.50731087 2357.06673622 C1962.50689037 2358.13547122 1962.50646987 2359.20420623 1962.50603662 2360.30532714 C1962.49973752 2377.23151101 1962.50684492 2394.15766159 1962.51952007 2411.08384077 C1962.53169912 2427.72518143 1962.52960389 2444.36646954 1962.51229975 2461.00780622 C1962.50257903 2470.76498733 1962.5037689 2480.52201915 1962.52112973 2490.2791905 C1962.53156913 2496.76194917 1962.52746375 2503.24459419 1962.51161324 2509.7273416 C1962.5030361 2513.40053024 1962.50053629 2517.07342368 1962.51599697 2520.74659651 C1962.61480635 2545.98261475 1960.651216 2567.43314815 1943 2587 C1942.39671875 2587.69609375 1941.7934375 2588.3921875 1941.171875 2589.109375 C1929.68101983 2601.56584825 1911.95472846 2609.47013073 1895.046875 2610.37109375 C1893.28141484 2610.40383596 1891.51572531 2610.42584932 1889.75 2610.4375 C1888.91726563 2610.47037109 1888.08453125 2610.50324219 1887.2265625 2610.53710938 C1880.79691498 2610.58865903 1874.88463843 2609.41105019 1868.67895508 2607.89501953 C1867.30753908 2607.56368059 1867.30753908 2607.56368059 1865.9084177 2607.22564793 C1854.40950225 2604.41295244 1843.00224956 2601.26265607 1831.58984375 2598.12109375 C1829.11490112 2597.44267891 1826.63986684 2596.76459838 1824.16474915 2596.08682251 C1818.86603895 2594.63539079 1813.56798727 2593.18157756 1808.27038574 2591.72610474 C1799.76365581 2589.38903779 1791.25548702 2587.05723579 1782.74707031 2584.72631836 C1780.54841028 2584.12395408 1778.34975241 2583.52158194 1776.15109503 2582.91920799 C1774.67301849 2582.51425518 1773.1949402 2582.10930875 1771.71686018 2581.70436865 C1766.46573863 2580.26570697 1761.21478924 2578.82641803 1755.96389771 2577.38691711 C1735.92351019 2571.89328137 1715.87960685 2566.41265855 1695.83203125 2560.9453125 C1694.82307804 2560.67015222 1694.82307804 2560.67015222 1693.79374194 2560.38943315 C1685.65366752 2558.16955945 1677.51339581 2555.95040971 1669.3730436 2553.73155493 C1662.51593517 2551.86246321 1655.65896195 2549.99287568 1648.80200088 2548.12324345 C1639.81836204 2545.67375007 1630.83470075 2543.22433905 1621.85096741 2540.77519226 C1602.56180896 2535.5165717 1583.27296985 2530.25678123 1563.984375 2524.99609375 C1563.30398068 2524.81052642 1562.62358637 2524.62495909 1561.92257404 2524.43376851 C1555.73790529 2522.7469921 1549.55324006 2521.06020277 1543.36857986 2519.37339497 C1533.74606363 2516.74894464 1524.1235277 2514.12456651 1514.50097656 2511.50024414 C1513.82032245 2511.31461186 1513.13966834 2511.12897959 1512.43838835 2510.93772209 C1509.00067643 2510.00016803 1505.56296418 2509.06261521 1502.12525177 2508.12506294 C1495.93766069 2506.43754766 1489.7500726 2504.75002142 1483.56248426 2503.06249607 C1480.12498963 2502.12499693 1476.68749481 2501.1874985 1473.25 2500.25 C1471.875 2499.875 1470.5 2499.5 1469.125 2499.125 C1468.1040625 2498.8465625 1468.1040625 2498.8465625 1467.0625 2498.5625 C1399 2480 1330.9375 2461.4375 534.81250679 2244.31250179 C533.43748419 2243.93749567 532.06246154 2243.56248971 530.68743885 2243.18748391 C527.25028435 2242.25007889 523.81313062 2241.31267108 520.37597847 2240.37525749 C514.18435353 2238.68662021 507.9927232 2236.99800271 501.80106413 2235.30949056 C498.35809495 2234.37056623 494.91513026 2233.43162539 491.47216797 2232.49267578 C490.79067743 2232.30682301 490.10918689 2232.12097023 489.40704513 2231.92948556 C479.86443189 2229.32703583 470.3220692 2226.72366923 460.77986979 2224.11970258 C454.66840842 2222.45198597 448.55687138 2220.78454672 442.4453125 2219.1171875 C441.77183604 2218.93344369 441.09835958 2218.74969989 440.40447474 2218.56038809 C419.93581846 2212.97607995 399.46318735 2207.40652504 378.9881289 2201.84573913 C373.58505208 2200.37822577 368.18223702 2198.90975193 362.77960205 2197.44061279 C362.02499089 2197.23541181 361.27037973 2197.03021082 360.49290156 2196.81879163 C356.71830197 2195.79232554 352.94373841 2194.76572709 349.1692009 2193.73903275 C341.14187786 2191.55576655 333.113693 2189.37572428 325.08434188 2187.1999284 C319.63246465 2185.72229515 314.18161605 2184.24090787 308.73152649 2182.75669467 C305.59923262 2181.9038205 302.46636496 2181.05317186 299.33251572 2180.20602798 C288.40042401 2177.25005795 277.48471427 2174.28543765 266.72705078 2170.73779297 C266.01498411 2170.5043474 265.30291744 2170.27090183 264.56927299 2170.03038216 C258.84913471 2168.08796932 253.90232499 2165.50166071 249 2162 C248.27425781 2161.49339844 247.54851562 2160.98679687 246.80078125 2160.46484375 C231.69252015 2149.54556447 221.61830366 2132.3266794 218.29000258 2114.06849122 C217.25218549 2106.66608982 217.61557287 2099.06903004 217.65942383 2091.61401367 C217.6602715 2089.58256544 217.65979222 2087.55111628 217.65809631 2085.51966858 C217.65724042 2080.04119239 217.67480007 2074.56291583 217.69581819 2069.08448577 C217.71465308 2063.34566639 217.71634078 2057.60684174 217.71989441 2051.86799622 C217.72919493 2041.01693295 217.75378162 2030.16596104 217.78394288 2019.31493789 C217.8175491 2006.9545459 217.83398851 1994.5941494 217.84902918 1982.23372304 C217.88033302 1956.8224315 217.93305457 1931.41122089 218 1906 C216.91541535 1905.85280266 215.83083071 1905.70560532 214.71337986 1905.55394745 C210.99216235 1904.99883081 207.56202684 1904.12989397 203.95092773 1903.08007812 C203.27667063 1902.88547123 202.60241352 1902.69086433 201.90772438 1902.49036026 C199.6650167 1901.84182031 197.42433596 1901.18654559 195.18359375 1900.53125 C193.56843201 1900.06268164 191.95314855 1899.59453268 190.3377533 1899.12677002 C185.95296474 1897.85579719 181.56990214 1896.57896412 177.18712616 1895.30107117 C172.55948991 1893.9528639 167.93029544 1892.61002804 163.30126953 1891.26660156 C155.50872802 1889.00430339 147.71716132 1886.73867579 139.92626953 1884.47070312 C129.17688411 1881.34155396 118.42570398 1878.21861156 107.67399025 1875.09747314 C88.33090001 1869.48201513 68.9882681 1863.86496862 49.65135479 1858.22827148 C44.21674594 1856.64449226 38.78079254 1855.06539747 33.34422112 1853.48836899 C29.50287104 1852.37340811 25.66231323 1851.25573581 21.82191849 1850.13748932 C19.97650633 1849.60077065 18.13076282 1849.06518989 16.28467941 1848.53078461 C13.73789781 1847.79336455 11.19231072 1847.05195506 8.64697266 1846.30957031 C7.88361729 1846.08958626 7.12026192 1845.8696022 6.33377457 1845.64295197 C1.11401068 1844.11401068 1.11401068 1844.11401068 0 1843 C-0.09779637 1841.34469363 -0.12478364 1839.6851769 -0.12467116 1838.02698412 C-0.12702406 1836.9398567 -0.12937696 1835.85272927 -0.13180115 1834.73265859 C-0.12929228 1833.52016367 -0.1267834 1832.30766875 -0.1241985 1831.05843157 C-0.12547658 1829.77732392 -0.12675467 1828.49621628 -0.12807148 1827.1762872 C-0.13151201 1823.58182164 -0.12864091 1819.98738341 -0.12483745 1816.39291922 C-0.12179307 1812.48238848 -0.12452685 1808.57186125 -0.12654433 1804.66133043 C-0.12928997 1797.76834223 -0.12827547 1790.87536227 -0.12488318 1783.98237448 C-0.1198246 1773.66330972 -0.12050638 1763.3442509 -0.12234976 1753.02518535 C-0.12532238 1735.44275907 -0.12353475 1717.8603361 -0.11920547 1700.27791023 C-0.11483461 1682.44828376 -0.11263205 1664.618659 -0.11310768 1646.78903198 C-0.11313637 1645.66488232 -0.11316507 1644.54073266 -0.11319463 1643.38251786 C-0.11335099 1637.650955 -0.11354294 1631.91939214 -0.11374746 1626.18782928 C-0.11515674 1584.65128023 -0.11171798 1543.11473271 -0.10573006 1501.57818413 C-0.09981226 1460.43001739 -0.0959559 1419.28185131 -0.09487724 1378.13368416 C-0.09484283 1376.85687547 -0.09480842 1375.58006678 -0.09477296 1374.26456692 C-0.09445978 1362.60328396 -0.09417208 1350.94200099 -0.09391499 1339.28071803 C-0.09327551 1310.28906674 -0.09231613 1281.29741547 -0.09113979 1252.3057642 C-0.09111316 1251.64570987 -0.09108653 1250.98565554 -0.09105909 1250.30559957 C-0.08933113 1207.54566172 -0.08628315 1164.78572408 -0.08213139 1122.0257864 C-0.0820651 1121.34294574 -0.08199881 1120.66010507 -0.08193051 1119.95657227 C-0.07990977 1099.16981076 -0.0777914 1078.38304927 -0.07565394 1057.59628777 C-0.073289 1034.59304113 -0.0709407 1011.5897945 -0.06866455 988.58654785 C-0.06859605 987.89484342 -0.06852755 987.20313899 -0.06845698 986.49047382 C-0.06195804 920.8090509 -0.05814638 855.12762791 -0.05503077 789.44620475 C-0.05489862 786.66458528 -0.0547657 783.8829658 -0.05463275 781.10134633 C-0.05340936 755.50451716 -0.05221752 729.90768799 -0.05106533 704.31085881 C-0.05103469 703.63022322 -0.05100405 702.94958762 -0.05097248 702.24832671 C-0.05087972 700.1875453 -0.05078697 698.1267639 -0.05069422 696.06598249 C-0.04821781 641.0470194 -0.04547588 586.02805633 -0.04255217 531.00909327 C-0.04241293 528.38880937 -0.04227388 525.76852546 -0.04213501 523.14824156 C-0.03588007 405.15408466 -0.02654155 287.15992807 -0.01586914 169.16577148 C-0.01576921 168.06066835 -0.01566927 166.95556521 -0.01556631 165.81697411 C-0.01056561 110.54464939 -0.00539152 55.27232468 0 0 Z M66 79 C66 647.92 66 1216.84 66 1803 C80.18858942 1807.31826634 94.37312003 1811.60624558 108.6171875 1815.73046875 C110.41427689 1816.25207987 112.21132364 1816.77383794 114.0083313 1817.29573059 C118.6904469 1818.65517576 123.37304533 1820.01294943 128.05578613 1821.37023926 C135.45083909 1823.5139881 142.8451385 1825.66033482 150.23944855 1827.80664444 C152.97980786 1828.60187627 155.72033497 1829.39652787 158.46087646 1830.19113159 C167.9207394 1832.9352957 177.37602925 1835.69430954 186.82519531 1838.47509766 C188.74252281 1839.03876371 190.65985068 1839.60242849 192.57717896 1840.16609192 C196.2160044 1841.23603561 199.85374671 1842.30956574 203.49093628 1843.38505554 C205.12299099 1843.86530431 206.75507932 1844.34543885 208.38720703 1844.82543945 C209.50665396 1845.15810161 209.50665396 1845.15810161 210.64871597 1845.49748421 C214.2634047 1846.6125482 214.2634047 1846.6125482 218 1847 C218.0002442 1845.70117682 218.0004884 1844.40235364 218.00074001 1843.06417218 C218.00913186 1798.59291149 218.01841148 1754.121651 218.02832031 1709.65039062 C218.02851985 1708.75448816 218.0287194 1707.8585857 218.02892498 1706.93553467 C218.05033041 1610.93948261 218.07757638 1514.94343431 218.11663818 1418.9473877 C218.11750436 1416.81507692 218.11837053 1414.68276615 218.1192367 1412.55045538 C218.13743553 1367.7927708 218.15645603 1323.0350866 218.1764257 1278.27740278 C218.18645624 1255.79416282 218.19632888 1233.31092279 218.20605225 1210.8276827 C218.2075199 1207.43616909 218.20899205 1204.04465548 218.2104644 1200.65314186 C218.23309692 1148.42812495 218.2523431 1096.20310949 218.26177979 1043.97808838 C218.26198275 1042.85518929 218.26218571 1041.7322902 218.26239483 1040.57536386 C218.26564665 1022.47088641 218.2686143 1004.36640892 218.27154423 986.26193141 C218.27998758 934.11594028 218.290532 881.96995341 218.31498337 829.82396698 C218.31548516 828.751639 218.31598695 827.67931101 218.31650395 826.57448824 C218.32755725 803.03435432 218.33969127 779.49422109 218.35284859 755.95408825 C218.3581236 746.48234694 218.36324303 737.01060556 218.36830902 727.53886414 C218.36886722 726.50222299 218.36942543 725.46558185 218.37000055 724.39752733 C218.38790887 690.99619392 218.39315253 657.59487325 218.39175374 624.19353551 C218.39040266 590.54728822 218.40147169 556.90106977 218.42980235 523.25483365 C218.43371442 518.60505142 218.43748409 513.95526909 218.44116783 509.30548668 C218.4418951 508.39399849 218.44262237 507.48251031 218.44337167 506.54340127 C218.45451769 492.11164437 218.45224032 477.67992203 218.44435814 463.2481643 C218.43688301 449.05635048 218.44363147 434.86460254 218.4654923 420.67280295 C218.47787913 412.35323712 218.47936672 404.03384288 218.46464847 395.71427986 C218.45493843 389.53517727 218.46608709 383.35627626 218.4853007 377.17719959 C218.48980445 374.6948063 218.48762836 372.21238951 218.47792076 369.73001111 C218.38706695 344.63299928 222.37068833 324.54379267 240.203125 305.66796875 C253.61494102 292.63363762 271.91808686 286.0154559 290.5 285.75 C306.74540719 285.99485904 322.63017964 291.46709058 338.18359375 295.71875 C340.70060151 296.40287514 343.21772507 297.08657437 345.73495483 297.7698822 C351.83778844 299.42740381 357.9391393 301.0903203 364.03999996 302.7550872 C371.24969551 304.72218109 378.46096046 306.68349356 385.67222106 308.6448406 C404.4509895 313.75281171 423.22599255 318.87456188 442 324 C442.70254095 324.19179179 443.4050819 324.38358358 444.12891197 324.58118725 C470.00515149 331.64540663 495.8790233 338.71827928 521.75073242 345.79907227 C522.41100571 345.97978079 523.071279 346.16048931 523.75156057 346.34667385 C525.75450464 346.89485608 527.75744798 347.44304097 529.76039124 347.9912262 C532.43531147 348.72332271 535.11023319 349.45541382 537.78515625 350.1875 C538.44686915 350.36860219 539.10858205 350.54970438 539.79034686 350.73629451 C571.08284147 359.3005039 602.38212647 367.83976252 633.68283796 376.37388468 C636.4394189 377.12547126 639.19599176 377.87708747 641.95256466 378.62870353 C653.68411432 381.82746142 665.4157098 385.02605123 677.14738464 388.22434998 C696.43708929 393.48313459 715.72648013 398.74306876 735.015625 404.00390625 C735.69601932 404.18947358 736.37641363 404.37504091 737.07742596 404.56623149 C743.26209471 406.2530079 749.44675994 407.93979723 755.63142014 409.62660503 C765.25393637 412.25105536 774.8764723 414.87543349 784.49902344 417.49975586 C785.17967755 417.68538814 785.86033166 417.87102041 786.56161165 418.06227791 C789.99932357 418.99983197 793.43703582 419.93738479 796.87474823 420.87493706 C803.06233931 422.56245234 809.2499274 424.24997858 815.43751574 425.93750393 C818.87501037 426.87500307 822.31250519 427.8125015 825.75 428.75 C827.125 429.125 828.5 429.5 829.875 429.875 C830.555625 430.060625 831.23625 430.24625 831.9375 430.4375 C900 449 968.0625 467.5625 1368.18749911 576.68749976 C1369.56250208 577.06250057 1370.93750506 577.43750136 1372.31250805 577.81250215 C1375.74996254 578.74998967 1379.18741696 579.68747743 1382.62487125 580.62496567 C1388.81291464 582.31261489 1395.00095848 584.00026248 1401.18900472 585.68790126 C1404.62722417 586.62559186 1408.06544324 587.56328385 1411.50366211 588.50097656 C1412.184401 588.68663193 1412.86513988 588.8722873 1413.56650722 589.06356859 C1423.18065617 591.6856024 1432.79478402 594.30771357 1442.40889871 596.92987299 C1448.58639648 598.61472438 1454.76390045 600.29955305 1460.94140625 601.984375 C1461.62109065 602.16974917 1462.30077506 602.35512335 1463.00105596 602.54611492 C1482.41091834 607.83986632 1501.82108289 613.13250829 1521.23150396 618.42421079 C1530.31205869 620.89978141 1539.39253962 623.37562269 1548.4730072 625.85151291 C1555.3585676 627.72893053 1562.24415827 629.60623695 1569.12982178 631.48327637 C1598.08722361 639.37720154 1627.04198475 647.28058837 1655.98893166 655.21277618 C1660.1798582 656.36117877 1664.37088769 657.50920533 1668.56193542 658.65716553 C1671.28811978 659.40391853 1674.0142996 660.15068806 1676.74047852 660.89746094 C1677.40673937 661.07996257 1678.07300022 661.26246421 1678.75945079 661.4504962 C1685.97560234 663.42720332 1693.19145378 665.4049936 1700.40646362 667.38586426 C1706.44118009 669.04268198 1712.47648311 670.69734437 1718.51224709 672.3503418 C1720.72069939 672.95566326 1722.92890369 673.56189031 1725.13684654 674.16906738 C1728.13308651 674.99294212 1731.13014914 675.81375242 1734.12744141 676.63378906 C1735.00724639 676.87654697 1735.88705137 677.11930489 1736.79351711 677.3694191 C1740.83724009 678.55956823 1740.83724009 678.55956823 1745 679 C1745 641.71 1745 604.42 1745 566 C1723.64973805 559.67452129 1723.64973805 559.67452129 1702.29296875 553.37109375 C1701.20589158 553.05102262 1701.20589158 553.05102262 1700.09685326 552.7244854 C1682.60088228 547.57536897 1665.08347681 542.50075886 1647.5625 537.4375 C1646.78057156 537.21153137 1645.99864311 536.98556274 1645.19301987 536.75274658 C1642.79494642 536.05975043 1640.39686417 535.36678476 1637.9987793 534.67382812 C1635.55995989 533.96909306 1633.12114304 533.26434918 1630.68233299 532.55958176 C1629.03702538 532.08412123 1627.39171209 531.60868032 1625.7463932 531.13325882 C1606.26077051 525.50232364 1586.78454732 519.83913108 1567.30887985 514.17387772 C1559.11358789 511.78999913 1550.91815278 509.40661272 1542.72265625 507.0234375 C1541.39314532 506.63682166 1541.39314532 506.63682166 1540.03677559 506.2423954 C1523.21890028 501.35208987 1506.39747544 496.47408992 1489.57461548 491.60096359 C1463.39983961 484.01879355 1437.22975272 476.4205933 1411.0625 468.8125 C1409.71411482 468.42046576 1409.71411482 468.42046576 1408.33848953 468.02051163 C1393.6335204 463.74511599 1378.9287707 459.46896586 1364.2240448 455.19273376 C1350.46196529 451.19063803 1336.69981019 447.18880241 1322.9375 443.1875 C1322.03720692 442.925741 1321.13691383 442.66398201 1320.20933914 442.39429092 C1294.26223058 434.85029993 1268.31164983 427.31840652 1242.35714722 419.79989624 C1216.97484129 412.44698782 1191.5990002 405.07193257 1166.2243042 397.69281006 C1142.00980869 390.6511412 1117.79327064 383.61664531 1093.57149124 376.60007095 C1067.39779739 369.018058 1041.22871287 361.42029097 1015.0625 353.8125 C1014.16357655 353.55114384 1013.26465309 353.28978767 1012.33848953 353.02051163 C997.6335204 348.74511599 982.9287707 344.46896586 968.2240448 340.19273376 C954.46196529 336.19063803 940.69981019 332.18880241 926.9375 328.1875 C926.03720692 327.925741 925.13691383 327.66398201 924.20933914 327.39429092 C898.26223058 319.85029993 872.31164983 312.31840652 846.35714722 304.79989624 C820.97588173 297.44728922 795.60104533 290.07265699 770.22742844 282.6937027 C745.17601295 275.40847357 720.12177725 268.13313972 695.0625 260.875 C669.69342296 253.52713023 644.33254151 246.15138268 618.97483063 238.76438904 C595.30054251 231.86788974 571.62237337 224.98505899 547.9375 218.125 C521.95374117 210.59909452 495.97559972 203.05401817 470 195.5 C444.860306 188.18915226 419.71878189 180.88474776 394.57149124 173.60007095 C368.39779739 166.018058 342.22871287 158.42029097 316.0625 150.8125 C315.16357655 150.55114384 314.26465309 150.28978767 313.33848953 150.02051163 C298.6335204 145.74511599 283.9287707 141.46896586 269.2240448 137.19273376 C256.36739355 133.45394203 243.51068501 129.71534739 230.65382767 125.9772644 C228.84464923 125.45125101 227.0354731 124.92522971 225.22629929 124.39920044 C205.80254003 118.75164576 186.37801131 113.1067806 166.94921875 107.4765625 C166.19224764 107.25719339 165.43527653 107.03782429 164.6553669 106.81180763 C157.35736 104.69693289 150.0591601 102.58272704 142.76045322 100.4702692 C129.22459001 96.55239017 115.69231013 92.62324617 102.171875 88.65234375 C99.88655716 87.98201097 97.60123819 87.31168207 95.31591797 86.64135742 C91.14690493 85.41824617 86.97948956 84.18988861 82.81298828 82.95825195 C80.99777341 82.42511571 79.18250978 81.89214541 77.3671875 81.359375 C76.55215759 81.11674423 75.73712769 80.87411346 74.8973999 80.62413025 C71.8365331 79.72946046 69.20695658 79 66 79 Z " fill="#FEE01A" transform="translate(19,21)"/>
<path d="M0 0 C19.57430021 4.6057177 19.57430021 4.6057177 26.37109375 6.43847656 C27.16556915 6.65054245 27.96004456 6.86260834 28.77859497 7.08110046 C31.33250358 7.76416355 33.88518024 8.45165006 36.4375 9.140625 C37.77238968 9.50076817 37.77238968 9.50076817 39.13424683 9.86818695 C43.83631741 11.13792602 48.53720184 12.41196269 53.23730469 13.68896484 C57.07681853 14.73119769 60.91860341 15.76433462 64.76269531 16.78955078 C69.46762106 18.04439768 74.16801575 19.31506417 78.86575317 20.59654999 C80.63095686 21.07541545 82.39758206 21.54907867 84.16574097 22.01691437 C107.03912161 28.0806837 127.08971345 37.00231122 140.1875 57.8125 C148.10365894 71.77333466 151.47769802 86.00279049 151.37719816 102.00438911 C151.38369493 103.86134916 151.38369493 103.86134916 151.39032295 105.75582356 C151.39926 109.16860237 151.39492255 112.58087934 151.38479719 115.99362216 C151.37707787 119.72907298 151.38692046 123.46448684 151.3944377 127.19993243 C151.40525019 133.76408407 151.40495758 140.32816208 151.39736467 146.89231715 C151.38605221 156.71913874 151.39207861 166.54589829 151.40142866 176.37271923 C151.41685512 193.12209044 151.41803755 209.87143566 151.41144943 226.62081146 C151.40482153 243.59356746 151.40469691 260.56630488 151.41249657 277.53906059 C151.41298457 278.61124999 151.41347256 279.6834394 151.41397535 280.78811938 C151.41598354 285.1550164 151.41803664 289.52191338 151.42014709 293.88881034 C151.44154838 338.2186806 151.44360146 382.54853713 151.43809005 426.87841125 C151.43733434 433.00390121 151.43660672 439.12939118 151.43590808 445.25488114 C151.43569944 447.07987339 151.43569944 447.07987339 151.43548659 448.94173416 C151.43253463 475.90170422 151.43554676 502.86167263 151.43980437 529.8216424 C151.44038652 533.5111335 151.44095537 537.2006246 151.44152 540.8901157 C151.44303494 550.78031347 151.44456185 560.67051125 151.44611301 570.56070902 C151.4568703 639.60565507 151.46157095 708.6505996 151.45364285 777.69554615 C151.45342039 779.64792428 151.45342039 779.64792428 151.45319343 781.6397444 C151.45153442 796.15393541 151.44978484 810.66812641 151.44800042 825.18231741 C151.4478394 826.49274527 151.44767837 827.80317313 151.44751247 829.15331093 C151.44620467 839.78862672 151.44620467 839.78862672 151.44555128 845.05174482 C151.43515902 928.87898893 151.4429275 1012.70620587 151.46655273 1096.53344727 C151.47249608 1117.65650587 151.47838761 1138.77956448 151.48396206 1159.90262318 C151.48430583 1161.20322992 151.4846496 1162.50383666 151.48500379 1163.84385573 C151.49553011 1203.9241184 151.50112512 1244.00437931 151.5015192 1284.08464336 C151.50153199 1285.34283682 151.50154477 1286.60103028 151.50155794 1287.89735082 C151.50178622 1315.51648782 151.5007802 1343.13562468 151.49864888 1370.7547616 C151.49789411 1380.63710203 151.49721591 1390.51944246 151.49656873 1400.40178289 C151.49640604 1402.86027874 151.49623838 1405.31877458 151.49606572 1407.77727042 C151.49334379 1446.96159398 151.50190193 1486.1459048 151.51591982 1525.33022561 C151.53032256 1565.88765673 151.52988369 1606.44506361 151.5125451 1647.0024939 C151.5107409 1651.35724132 151.50900071 1655.71198876 151.50731087 1660.06673622 C151.50689037 1661.13547122 151.50646987 1662.20420623 151.50603662 1663.30532714 C151.49973752 1680.23151101 151.50684492 1697.15766159 151.51952007 1714.08384077 C151.53169912 1730.72518143 151.52960389 1747.36646954 151.51229975 1764.00780622 C151.50257903 1773.76498733 151.5037689 1783.52201915 151.52112973 1793.2791905 C151.53156913 1799.76194917 151.52746375 1806.24459419 151.51161324 1812.7273416 C151.5030361 1816.40053024 151.50053629 1820.07342368 151.51599697 1823.74659651 C151.61480635 1848.98261475 149.651216 1870.43314815 132 1890 C131.39671875 1890.69609375 130.7934375 1891.3921875 130.171875 1892.109375 C118.68101983 1904.56584825 100.95472846 1912.47013073 84.046875 1913.37109375 C82.28141484 1913.40383596 80.51572531 1913.42584932 78.75 1913.4375 C77.91726563 1913.47037109 77.08453125 1913.50324219 76.2265625 1913.53710938 C69.79691498 1913.58865903 63.88463843 1912.41105019 57.67895508 1910.89501953 C56.30753908 1910.56368059 56.30753908 1910.56368059 54.9084177 1910.22564793 C43.40950225 1907.41295244 32.00224956 1904.26265607 20.58984375 1901.12109375 C18.11490112 1900.44267891 15.63986684 1899.76459838 13.16474915 1899.08682251 C7.86603895 1897.63539079 2.56798727 1896.18157756 -2.72961426 1894.72610474 C-11.23634419 1892.38903779 -19.74451298 1890.05723579 -28.25292969 1887.72631836 C-30.45158972 1887.12395408 -32.65024759 1886.52158194 -34.84890497 1885.91920799 C-36.32698151 1885.51425518 -37.8050598 1885.10930875 -39.28313982 1884.70436865 C-44.53426137 1883.26570697 -49.78521076 1881.82641803 -55.03610229 1880.38691711 C-75.07648981 1874.89328137 -95.12039315 1869.41265855 -115.16796875 1863.9453125 C-116.17692196 1863.67015222 -116.17692196 1863.67015222 -117.20625806 1863.38943315 C-125.34633248 1861.16955945 -133.48660419 1858.95040971 -141.6269564 1856.73155493 C-148.48406483 1854.86246321 -155.34103805 1852.99287568 -162.19799912 1851.12324345 C-171.18163796 1848.67375007 -180.16529925 1846.22433905 -189.14903259 1843.77519226 C-208.43819104 1838.5165717 -227.72703015 1833.25678123 -247.015625 1827.99609375 C-247.69601932 1827.81052642 -248.37641363 1827.62495909 -249.07742596 1827.43376851 C-255.26209471 1825.7469921 -261.44675994 1824.06020277 -267.63142014 1822.37339497 C-277.25393637 1819.74894464 -286.8764723 1817.12456651 -296.49902344 1814.50024414 C-297.17967755 1814.31461186 -297.86033166 1814.12897959 -298.56161165 1813.93772209 C-301.99932357 1813.00016803 -305.43703582 1812.06261521 -308.87474823 1811.12506294 C-315.06233931 1809.43754766 -321.2499274 1807.75002142 -327.43751574 1806.06249607 C-330.87501037 1805.12499693 -334.31250519 1804.1874985 -337.75 1803.25 C-339.125 1802.875 -340.5 1802.5 -341.875 1802.125 C-342.555625 1801.939375 -343.23625 1801.75375 -343.9375 1801.5625 C-412 1783 -480.0625 1764.4375 -1276.18749321 1547.31250179 C-1277.56251581 1546.93749567 -1278.93753846 1546.56248971 -1280.31256115 1546.18748391 C-1283.74971565 1545.25007889 -1287.18686938 1544.31267108 -1290.62402153 1543.37525749 C-1296.81564647 1541.68662021 -1303.0072768 1539.99800271 -1309.19893587 1538.30949056 C-1312.64190505 1537.37056623 -1316.08486974 1536.43162539 -1319.52783203 1535.49267578 C-1320.20932257 1535.30682301 -1320.89081311 1535.12097023 -1321.59295487 1534.92948556 C-1331.13556811 1532.32703583 -1340.6779308 1529.72366923 -1350.22013021 1527.11970258 C-1356.33159158 1525.45198597 -1362.44312862 1523.78454672 -1368.5546875 1522.1171875 C-1369.56490219 1521.84157179 -1369.56490219 1521.84157179 -1370.59552526 1521.56038809 C-1391.06418154 1515.97607995 -1411.53681265 1510.40652504 -1432.0118711 1504.84573913 C-1437.41494792 1503.37822577 -1442.81776298 1501.90975193 -1448.22039795 1500.44061279 C-1448.97500911 1500.23541181 -1449.72962027 1500.03021082 -1450.50709844 1499.81879163 C-1454.28169803 1498.79232554 -1458.05626159 1497.76572709 -1461.8307991 1496.73903275 C-1469.85812214 1494.55576655 -1477.886307 1492.37572428 -1485.91565812 1490.1999284 C-1491.36753535 1488.72229515 -1496.81838395 1487.24090787 -1502.26847351 1485.75669467 C-1505.40076738 1484.9038205 -1508.53363504 1484.05317186 -1511.66748428 1483.20602798 C-1522.59957599 1480.25005795 -1533.51528573 1477.28543765 -1544.27294922 1473.73779297 C-1544.98501589 1473.5043474 -1545.69708256 1473.27090183 -1546.43072701 1473.03038216 C-1552.15086529 1471.08796932 -1557.09767501 1468.50166071 -1562 1465 C-1563.08861328 1464.24009766 -1563.08861328 1464.24009766 -1564.19921875 1463.46484375 C-1579.30747985 1452.54556447 -1589.38169634 1435.3266794 -1592.70999742 1417.06849122 C-1593.74781451 1409.66608982 -1593.38442713 1402.06903004 -1593.34057617 1394.61401367 C-1593.3397285 1392.58256544 -1593.34020778 1390.55111628 -1593.34190369 1388.51966858 C-1593.34275958 1383.04119239 -1593.32519993 1377.56291583 -1593.30418181 1372.08448577 C-1593.28534692 1366.34566639 -1593.28365922 1360.60684174 -1593.28010559 1354.86799622 C-1593.27080507 1344.01693295 -1593.24621838 1333.16596104 -1593.21605712 1322.31493789 C-1593.1824509 1309.9545459 -1593.16601149 1297.5941494 -1593.15097082 1285.23372304 C-1593.11966698 1259.8224315 -1593.06694543 1234.41122089 -1593 1209 C-1588.54571507 1210.10775836 -1584.11043848 1211.21781466 -1579.70703125 1212.515625 C-1578.75771729 1212.79422363 -1577.80840332 1213.07282227 -1576.83032227 1213.35986328 C-1575.83444092 1213.6536084 -1574.83855957 1213.94735352 -1573.8125 1214.25 C-1565.90388236 1216.57067076 -1557.99015232 1218.87019075 -1550.0625 1221.125 C-1542.5497072 1223.26422407 -1535.05038929 1225.44476904 -1527.55859375 1227.65625 C-1513.53657396 1231.79420353 -1499.4965337 1235.86876064 -1485.43579102 1239.87304688 C-1478.79939854 1241.76537436 -1472.17712654 1243.70254489 -1465.55859375 1245.65625 C-1451.53657396 1249.79420353 -1437.4965337 1253.86876064 -1423.43579102 1257.87304688 C-1416.79939854 1259.76537436 -1410.17712654 1261.70254489 -1403.55859375 1263.65625 C-1390.70088285 1267.45061137 -1377.83094787 1271.20386065 -1364.9375 1274.875 C-1352.28952008 1278.47651655 -1339.66382312 1282.15481152 -1327.03613281 1285.82666016 C-1321.1670902 1287.53308951 -1315.29723922 1289.23673395 -1309.4274292 1290.94052124 C-1306.20158449 1291.87689369 -1302.97579512 1292.81345673 -1299.75 1293.75 C-1298.4583336 1294.12500091 -1297.16666693 1294.50000091 -1295.875 1294.875 C-1226.12500011 1315.12499997 -1226.12500011 1315.12499997 -1224.18756104 1315.68748474 C-1222.89569268 1316.06254166 -1221.60382256 1316.43759252 -1220.31195068 1316.81263733 C-1217.0858555 1317.74921693 -1213.85979077 1318.68590118 -1210.63378906 1319.62280273 C-1204.78475006 1321.32137983 -1198.93548405 1323.0191555 -1193.08509827 1324.71308899 C-1178.71448442 1328.87407542 -1164.35450341 1333.06814562 -1150.01342773 1337.33007812 C-1143.57888357 1339.24089889 -1137.13824411 1341.12117342 -1130.6796875 1342.94921875 C-1125.59236111 1344.40196907 -1120.51549402 1345.8900088 -1115.4375 1347.375 C-1107.65300751 1349.65064475 -1099.86289473 1351.90447606 -1092.0625 1354.125 C-1084.54976009 1356.26441264 -1077.05039107 1358.44476852 -1069.55859375 1360.65625 C-1056.70088285 1364.45061137 -1043.83094787 1368.20386065 -1030.9375 1371.875 C-1018.28952008 1375.47651655 -1005.66382312 1379.15481152 -993.03613281 1382.82666016 C-987.1670902 1384.53308951 -981.29723922 1386.23673395 -975.4274292 1387.94052124 C-972.20158449 1388.87689369 -968.97579512 1389.81345673 -965.75 1390.75 C-964.4583336 1391.12500091 -963.16666693 1391.50000091 -961.875 1391.875 C-861.12499998 1421.12500001 -861.12499998 1421.12500001 -859.18756104 1421.68748474 C-857.89569268 1422.06254166 -856.60382256 1422.43759252 -855.31195068 1422.81263733 C-852.0858555 1423.74921693 -848.85979077 1424.68590118 -845.63378906 1425.62280273 C-839.78475006 1427.32137983 -833.93548405 1429.0191555 -828.08509827 1430.71308899 C-813.71448442 1434.87407542 -799.35450341 1439.06814562 -785.01342773 1443.33007812 C-778.57888357 1445.24089889 -772.13824411 1447.12117342 -765.6796875 1448.94921875 C-760.59236111 1450.40196907 -755.51549402 1451.8900088 -750.4375 1453.375 C-742.65300751 1455.65064475 -734.86289473 1457.90447606 -727.0625 1460.125 C-720.24790217 1462.06560182 -713.44241763 1464.03343961 -706.64697266 1466.04003906 C-697.48030904 1468.74677303 -688.30225603 1471.41446772 -679.12597656 1474.08837891 C-676.0393106 1474.98853594 -672.95316805 1475.890465 -669.8671875 1476.79296875 C-659.39879155 1479.85319448 -648.92354038 1482.88629019 -638.43408203 1485.87353516 C-631.79825875 1487.76569782 -625.1765582 1489.70271266 -618.55859375 1491.65625 C-604.53657396 1495.79420353 -590.4965337 1499.86876064 -576.43579102 1503.87304688 C-569.79939854 1505.76537436 -563.17712654 1507.70254489 -556.55859375 1509.65625 C-542.53657396 1513.79420353 -528.4965337 1517.86876064 -514.43579102 1521.87304688 C-507.79939854 1523.76537436 -501.17712654 1525.70254489 -494.55859375 1527.65625 C-480.53657396 1531.79420353 -466.4965337 1535.86876064 -452.43579102 1539.87304688 C-445.79939854 1541.76537436 -439.17712654 1543.70254489 -432.55859375 1545.65625 C-418.53657396 1549.79420353 -404.4965337 1553.86876064 -390.43579102 1557.87304688 C-384.49742715 1559.56633569 -378.56921457 1561.29128421 -372.64697266 1563.04003906 C-363.48030904 1565.74677303 -354.30225603 1568.41446772 -345.12597656 1571.08837891 C-342.0393106 1571.98853594 -338.95316805 1572.890465 -335.8671875 1573.79296875 C-325.39879155 1576.85319448 -314.92354038 1579.88629019 -304.43408203 1582.87353516 C-297.79825875 1584.76569782 -291.1765582 1586.70271266 -284.55859375 1588.65625 C-270.53657396 1592.79420353 -256.4965337 1596.86876064 -242.43579102 1600.87304688 C-235.79939854 1602.76537436 -229.17712654 1604.70254489 -222.55859375 1606.65625 C-208.53657396 1610.79420353 -194.4965337 1614.86876064 -180.43579102 1618.87304688 C-175.17952616 1620.37183925 -169.92989436 1621.89090532 -164.6875 1623.4375 C-164.01557617 1623.63561279 -163.34365234 1623.83372559 -162.65136719 1624.0378418 C-161.22426576 1624.45876028 -159.79718315 1624.87974257 -158.37011719 1625.30078125 C-157.58797852 1625.53152344 -156.80583984 1625.76226563 -156 1626 C-155.10442383 1626.26425781 -154.20884766 1626.52851563 -153.28613281 1626.80078125 C-142.59254696 1629.95166628 -131.89412737 1633.05426398 -121.125 1635.9375 C-110.61677591 1638.75649909 -100.23980543 1641.96237593 -89.8515625 1645.19140625 C-84.5011489 1646.85254854 -79.13631955 1648.4280899 -73.7421875 1649.94140625 C-68.48528522 1651.42848404 -63.2435112 1652.96647502 -58 1654.5 C-50.61984328 1656.6565393 -43.23556808 1658.79582119 -35.83984375 1660.8984375 C-29.36513292 1662.75588252 -22.90084227 1664.6491448 -16.43554688 1666.5390625 C-15.44748047 1666.8278125 -14.45941406 1667.1165625 -13.44140625 1667.4140625 C-12.56170166 1667.6713916 -11.68199707 1667.9287207 -10.77563477 1668.19384766 C-7.52002673 1669.13940292 -4.2597021 1670.06865654 -1 1671 C-0.67 1119.57 -0.34 568.14 0 0 Z " fill="#FEE01A" transform="translate(1830,718)"/>
<path d="M0 0 C2.52559771 0.62603898 5.05083759 1.25346546 7.57589722 1.88166809 C8.6353003 2.14404416 8.6353003 2.14404416 9.71610546 2.41172075 C16.40226155 4.07719894 23.01966527 5.95231552 29.6328125 7.88671875 C30.91856971 8.26039177 32.20440524 8.63379536 33.49031067 9.00695801 C36.97066933 10.01773126 40.44995338 11.03215774 43.92905807 12.0472374 C47.70018187 13.14676991 51.47233989 14.24274369 55.24438477 15.33911133 C61.7602756 17.23343972 68.27558134 19.12976864 74.79052734 21.02734375 C85.07398477 24.02239737 95.35912381 27.01165101 105.64453125 30 C109.16724567 31.02356813 112.68994884 32.04717492 116.21264648 33.07080078 C117.09246972 33.32645876 117.97229296 33.58211674 118.8787775 33.84552193 C128.86484517 36.74738141 138.85041657 39.6509473 148.8359375 42.5546875 C149.74731665 42.81970943 150.65869579 43.08473137 151.59769249 43.35778427 C158.99046391 45.5075525 166.38321029 47.65740685 173.7759552 49.80726624 C187.53803471 53.80936197 201.30018981 57.81119759 215.0625 61.8125 C215.96279308 62.074259 216.86308617 62.33601799 217.79066086 62.60570908 C242.35720999 69.74830938 266.92655801 76.88115116 291.5 84 C316.98308573 91.38236977 342.46158771 98.78041299 367.9375 106.1875 C368.83642345 106.44885616 369.73534691 106.71021233 370.66151047 106.97948837 C385.3664796 111.25488401 400.0712293 115.53103414 414.7759552 119.80726624 C428.53803471 123.80936197 442.30018981 127.81119759 456.0625 131.8125 C456.96279308 132.074259 457.86308617 132.33601799 458.79066086 132.60570908 C484.73776942 140.14970007 510.68835017 147.68159348 536.64285278 155.20010376 C562.02411827 162.55271078 587.39895467 169.92734301 612.77257156 177.3062973 C637.82398705 184.59152643 662.87822275 191.86686028 687.9375 199.125 C713.30657704 206.47286977 738.66745849 213.84861732 764.02516937 221.23561096 C787.69945749 228.13211026 811.37762663 235.01494101 835.0625 241.875 C861.97026896 249.6685347 888.87185568 257.48318136 915.77115631 265.30589294 C940.82303661 272.59128064 965.87775154 279.8667238 990.9375 287.125 C1016.30657704 294.47286977 1041.66745849 301.84861732 1067.02516937 309.23561096 C1090.69945749 316.13211026 1114.37762663 323.01494101 1138.0625 329.875 C1164.97026896 337.6685347 1191.87185568 345.48318136 1218.77115631 353.30589294 C1243.82303661 360.59128064 1268.87775154 367.8667238 1293.9375 375.125 C1319.30657704 382.47286977 1344.66745849 389.84861732 1370.02516937 397.23561096 C1393.69945779 404.13211034 1417.37767311 411.01477999 1441.0625 417.875 C1466.69155215 425.29858462 1492.31598803 432.7379322 1517.9375 440.1875 C1519.75325515 440.71542378 1521.56901036 441.24334736 1523.38476562 441.77127075 C1537.18196345 445.78280627 1550.97896687 449.79501026 1564.7759552 453.80726624 C1578.53803471 457.80936197 1592.30018981 461.81119759 1606.0625 465.8125 C1606.96279308 466.074259 1607.86308617 466.33601799 1608.79066086 466.60570908 C1631.97797854 473.34730479 1655.16742846 480.08145998 1678.36117554 486.80090332 C1690.41066818 490.29177909 1702.45962685 493.78449769 1714.50845337 497.27767181 C1717.15170152 498.04398002 1719.7949673 498.81022738 1722.43823242 499.57647705 C1733.27475517 502.71800116 1744.11082085 505.86109408 1754.9460907 509.00693703 C1759.80372118 510.41724084 1764.66152194 511.82695095 1769.51977539 513.23510742 C1774.07362408 514.5550587 1778.62697298 515.8767202 1783.17995453 517.19965935 C1784.86015796 517.68755306 1786.54053756 518.17484059 1788.22110748 518.66147041 C1790.54079592 519.33327658 1792.85982354 520.00731967 1795.17871094 520.68188477 C1795.84228859 520.87349686 1796.50586624 521.06510895 1797.18955231 521.26252747 C1800.7326941 522.29591753 1804.24295186 523.40076426 1807.7426796 524.57345486 C1808.54295523 524.84128731 1809.34323086 525.10911977 1810.16775727 525.38506836 C1810.77239737 525.5879958 1811.37703747 525.79092324 1812 526 C1812.00996465 611.0130448 1812.01044915 696.02607431 1811.96203613 781.03910828 C1811.96129182 782.34840586 1811.96129182 782.34840586 1811.96053247 783.6841539 C1811.94801774 805.6554453 1811.93461348 827.62673614 1811.92084328 849.59802679 C1811.91151653 864.48022672 1811.90245486 879.36242678 1811.89359856 894.244627 C1811.89298862 895.26935445 1811.89237867 896.29408189 1811.89175025 897.34986169 C1811.8886376 902.58097454 1811.88552858 907.81208739 1811.88242082 913.04320025 C1811.86029672 950.27127466 1811.83769149 987.49934877 1811.81480408 1024.72742271 C1811.79223362 1061.44238966 1811.76988574 1098.15735674 1811.74781799 1134.87232399 C1811.74712519 1136.02481268 1811.74643238 1137.17730138 1811.74571858 1138.36471397 C1811.73938829 1148.89537713 1811.73306063 1159.42604029 1811.7267361 1169.95670345 C1811.71103424 1196.10106074 1811.69529962 1222.24541802 1811.67954254 1248.38977528 C1811.67882609 1249.57857057 1811.67810963 1250.76736587 1811.67737147 1251.99218526 C1811.64276243 1309.41332875 1811.60777535 1366.834472 1811.57275391 1424.25561523 C1811.56064513 1444.10951741 1811.54853805 1463.96341959 1811.53643799 1483.81732178 C1811.53568724 1485.04915225 1811.53493649 1486.28098273 1811.534163 1487.5501414 C1811.49907382 1545.12853684 1811.46425834 1602.70693245 1811.42951068 1660.28532809 C1811.42724676 1664.03674227 1811.42498272 1667.78815644 1811.42271865 1671.53957061 C1811.40771111 1696.40644031 1811.39270822 1721.27331 1811.37770845 1746.1401797 C1811.34787852 1795.59265605 1811.31802129 1845.04513239 1811.28814522 1894.49760871 C1811.28672338 1896.85112136 1811.28530155 1899.204634 1811.28387975 1901.55814665 C1811.22011041 2007.1151806 1811.15602395 2112.67221437 1811.09179688 2218.22924805 C1811.0911972 2219.21481756 1811.09059752 2220.20038706 1811.08997967 2221.21582231 C1811.06000602 2270.47721489 1811.03001435 2319.73860745 1811 2369 C1806.6713973 2367.78532336 1802.34299799 2366.56992514 1798.01477051 2365.35391235 C1796.54818952 2364.94198 1795.08155703 2364.53023095 1793.61486816 2364.11868286 C1781.67911748 2360.76934424 1769.76915231 2357.33887019 1757.87548828 2353.84277344 C1754.9172292 2352.9757408 1751.95698624 2352.11580655 1748.99609375 2351.2578125 C1739.09974082 2348.38779041 1729.22338341 2345.46828534 1719.375 2342.4375 C1711.06836729 2339.88552176 1702.72667644 2337.5220066 1694.33496094 2335.26708984 C1684.52381538 2332.62321124 1674.77963746 2329.75956544 1665.03222656 2326.89111328 C1660.02386356 2325.41925137 1655.01177722 2323.96018519 1650 2322.5 C1643.96424347 2320.74033006 1637.92881946 2318.97954295 1631.89453125 2317.21484375 C1622.43704217 2314.45034694 1612.97645936 2311.69882658 1603.5 2309 C1587.94031788 2304.56535026 1572.40428862 2300.06198286 1556.9375 2295.3125 C1549.66671775 2293.08172626 1542.39202795 2290.99550782 1535.03125 2289.08203125 C1526.68657015 2286.87781669 1518.42488062 2284.35694336 1510.14501953 2281.92333984 C1505.09874303 2280.44181386 1500.04923128 2278.97141698 1495 2277.5 C1493.00129852 2276.91667889 1491.0026006 2276.33334554 1489.00390625 2275.75 C1484.99194506 2274.57965417 1480.97883513 2273.41336286 1476.96484375 2272.25 C1467.07929924 2269.38131965 1457.21310998 2266.46512375 1447.375 2263.4375 C1439.06836729 2260.88552176 1430.72667644 2258.5220066 1422.33496094 2256.26708984 C1412.52381538 2253.62321124 1402.77963746 2250.75956544 1393.03222656 2247.89111328 C1388.02386356 2246.41925137 1383.01177722 2244.96018519 1378 2243.5 C1371.96424347 2241.74033006 1365.92881946 2239.97954295 1359.89453125 2238.21484375 C1350.43704419 2235.45034753 1340.97652578 2232.69858949 1331.5 2230 C1321.00234309 2227.01062739 1310.52450874 2223.9548196 1300.04833984 2220.89111328 C1295.03293687 2219.42497354 1290.01643195 2217.96261444 1285 2216.5 C1278.96428198 2214.74019773 1272.92881959 2212.97954299 1266.89453125 2211.21484375 C1257.43704419 2208.45034753 1247.97652578 2205.69858949 1238.5 2203 C1228.00234309 2200.01062739 1217.52450874 2196.9548196 1207.04833984 2193.89111328 C1202.03293687 2192.42497354 1197.01643195 2190.96261444 1192 2189.5 C1185.96428198 2187.74019773 1179.92881959 2185.97954299 1173.89453125 2184.21484375 C1164.43704419 2181.45034753 1154.97652578 2178.69858949 1145.5 2176 C1135.00234309 2173.01062739 1124.52450874 2169.9548196 1114.04833984 2166.89111328 C1110.03046229 2165.71657756 1106.01185855 2164.54453979 1101.99316406 2163.37280273 C1099.99634633 2162.79053329 1097.99960161 2162.2080134 1096.00292969 2161.62524414 C1090.9914309 2160.16267306 1085.97905315 2158.70325299 1080.96484375 2157.25 C1071.07929924 2154.38131965 1061.21310998 2151.46512375 1051.375 2148.4375 C1043.06836729 2145.88552176 1034.72667644 2143.5220066 1026.33496094 2141.26708984 C1016.52381538 2138.62321124 1006.77963746 2135.75956544 997.03222656 2132.89111328 C992.02386356 2131.41925137 987.01177722 2129.96018519 982 2128.5 C975.96424347 2126.74033006 969.92881946 2124.97954295 963.89453125 2123.21484375 C954.43704419 2120.45034753 944.97652578 2117.69858949 935.5 2115 C925.00234309 2112.01062739 914.52450874 2108.9548196 904.04833984 2105.89111328 C899.03293687 2104.42497354 894.01643195 2102.96261444 889 2101.5 C882.96428198 2099.74019773 876.92881959 2097.97954299 870.89453125 2096.21484375 C861.43704419 2093.45034753 851.97652578 2090.69858949 842.5 2088 C832.00234309 2085.01062739 821.52450874 2081.9548196 811.04833984 2078.89111328 C807.03046229 2077.71657756 803.01185855 2076.54453979 798.99316406 2075.37280273 C796.99634633 2074.79053329 794.99960161 2074.2080134 793.00292969 2073.62524414 C787.9914309 2072.16267306 782.97905315 2070.70325299 777.96484375 2069.25 C768.07929924 2066.38131965 758.21310998 2063.46512375 748.375 2060.4375 C740.06836729 2057.88552176 731.72667644 2055.5220066 723.33496094 2053.26708984 C713.52381538 2050.62321124 703.77963746 2047.75956544 694.03222656 2044.89111328 C689.02386356 2043.41925137 684.01177722 2041.96018519 679 2040.5 C672.96424347 2038.74033006 666.92881946 2036.97954295 660.89453125 2035.21484375 C651.43704419 2032.45034753 641.97652578 2029.69858949 632.5 2027 C622.00234309 2024.01062739 611.52450874 2020.9548196 601.04833984 2017.89111328 C596.03293687 2016.42497354 591.01643195 2014.96261444 586 2013.5 C579.96428198 2011.74019773 573.92881959 2009.97954299 567.89453125 2008.21484375 C558.43704419 2005.45034753 548.97652578 2002.69858949 539.5 2000 C529.00234309 1997.01062739 518.52450874 1993.9548196 508.04833984 1990.89111328 C504.03046229 1989.71657756 500.01185855 1988.54453979 495.99316406 1987.37280273 C493.99634633 1986.79053329 491.99960161 1986.2080134 490.00292969 1985.62524414 C484.9914309 1984.16267306 479.97905315 1982.70325299 474.96484375 1981.25 C465.07929924 1978.38131965 455.21310998 1975.46512375 445.375 1972.4375 C437.06836729 1969.88552176 428.72667644 1967.5220066 420.33496094 1965.26708984 C410.52512497 1962.62356414 400.78259681 1959.75960412 391.03662109 1956.89111328 C388.01179628 1956.00346168 384.9848615 1955.12343463 381.95703125 1954.24609375 C372.07358197 1951.38037402 362.2103915 1948.46428715 352.375 1945.4375 C344.06836729 1942.88552176 335.72667644 1940.5220066 327.33496094 1938.26708984 C317.52381538 1935.62321124 307.77963746 1932.75956544 298.03222656 1929.89111328 C293.02386356 1928.41925137 288.01177722 1926.96018519 283 1925.5 C276.96424347 1923.74033006 270.92881946 1921.97954295 264.89453125 1920.21484375 C255.2477571 1917.39473226 245.59834942 1914.58406246 235.9375 1911.8125 C235.15415283 1911.5868335 234.37080566 1911.36116699 233.5637207 1911.12866211 C228.79375668 1909.76475285 224.00888079 1908.47044249 219.21142578 1907.20654297 C210.90689235 1905.00249559 202.65386185 1902.63191678 194.40234375 1900.23828125 C192.79853346 1899.77428471 191.19468609 1899.31041634 189.59080505 1898.84666443 C185.272703 1897.59764109 180.95519 1896.34659325 176.63780975 1895.09507751 C172.99376797 1894.03899676 169.34939745 1892.98405284 165.70503616 1891.92907524 C137.9234024 1883.88647444 110.14815311 1875.82183209 82.375 1867.75 C81.06262423 1867.36861563 81.06262423 1867.36861563 79.72373581 1866.97952652 C69.69854387 1864.06608072 59.67415324 1861.14991241 49.65134716 1858.22826862 C44.21674054 1856.64449144 38.78078994 1855.06539672 33.34422112 1853.48836899 C29.50287104 1852.37340811 25.66231323 1851.25573581 21.82191849 1850.13748932 C19.97650633 1849.60077065 18.13076282 1849.06518989 16.28467941 1848.53078461 C13.73789781 1847.79336455 11.19231072 1847.05195506 8.64697266 1846.30957031 C7.88361729 1846.08958626 7.12026192 1845.8696022 6.33377457 1845.64295197 C1.11401068 1844.11401068 1.11401068 1844.11401068 0 1843 C-0.09779637 1841.34469363 -0.12478364 1839.6851769 -0.12467116 1838.02698412 C-0.12702406 1836.9398567 -0.12937696 1835.85272927 -0.13180115 1834.73265859 C-0.12929228 1833.52016367 -0.1267834 1832.30766875 -0.1241985 1831.05843157 C-0.12547658 1829.77732392 -0.12675467 1828.49621628 -0.12807148 1827.1762872 C-0.13151201 1823.58182164 -0.12864091 1819.98738341 -0.12483745 1816.39291922 C-0.12179307 1812.48238848 -0.12452685 1808.57186125 -0.12654433 1804.66133043 C-0.12928997 1797.76834223 -0.12827547 1790.87536227 -0.12488318 1783.98237448 C-0.1198246 1773.66330972 -0.12050638 1763.3442509 -0.12234976 1753.02518535 C-0.12532238 1735.44275907 -0.12353475 1717.8603361 -0.11920547 1700.27791023 C-0.11483461 1682.44828376 -0.11263205 1664.618659 -0.11310768 1646.78903198 C-0.11313637 1645.66488232 -0.11316507 1644.54073266 -0.11319463 1643.38251786 C-0.11335099 1637.650955 -0.11354294 1631.91939214 -0.11374746 1626.18782928 C-0.11515674 1584.65128023 -0.11171798 1543.11473271 -0.10573006 1501.57818413 C-0.09981226 1460.43001739 -0.0959559 1419.28185131 -0.09487724 1378.13368416 C-0.09484283 1376.85687547 -0.09480842 1375.58006678 -0.09477296 1374.26456692 C-0.09445978 1362.60328396 -0.09417208 1350.94200099 -0.09391499 1339.28071803 C-0.09327551 1310.28906674 -0.09231613 1281.29741547 -0.09113979 1252.3057642 C-0.09111316 1251.64570987 -0.09108653 1250.98565554 -0.09105909 1250.30559957 C-0.08933113 1207.54566172 -0.08628315 1164.78572408 -0.08213139 1122.0257864 C-0.0820651 1121.34294574 -0.08199881 1120.66010507 -0.08193051 1119.95657227 C-0.07990977 1099.16981076 -0.0777914 1078.38304927 -0.07565394 1057.59628777 C-0.073289 1034.59304113 -0.0709407 1011.5897945 -0.06866455 988.58654785 C-0.06859605 987.89484342 -0.06852755 987.20313899 -0.06845698 986.49047382 C-0.06195804 920.8090509 -0.05814638 855.12762791 -0.05503077 789.44620475 C-0.05489862 786.66458528 -0.0547657 783.8829658 -0.05463275 781.10134633 C-0.05340936 755.50451716 -0.05221752 729.90768799 -0.05106533 704.31085881 C-0.05103469 703.63022322 -0.05100405 702.94958762 -0.05097248 702.24832671 C-0.05087972 700.1875453 -0.05078697 698.1267639 -0.05069422 696.06598249 C-0.04821781 641.0470194 -0.04547588 586.02805633 -0.04255217 531.00909327 C-0.04241293 528.38880937 -0.04227388 525.76852546 -0.04213501 523.14824156 C-0.03588007 405.15408466 -0.02654155 287.15992807 -0.01586914 169.16577148 C-0.01576921 168.06066835 -0.01566927 166.95556521 -0.01556631 165.81697411 C-0.01056561 110.54464939 -0.00539152 55.27232468 0 0 Z M66 79 C66 647.92 66 1216.84 66 1803 C80.18858942 1807.31826634 94.37312003 1811.60624558 108.6171875 1815.73046875 C110.41427689 1816.25207987 112.21132364 1816.77383794 114.0083313 1817.29573059 C118.6904469 1818.65517576 123.37304533 1820.01294943 128.05578613 1821.37023926 C132.6871614 1822.71282672 137.31820463 1824.05655805 141.94921875 1825.40039062 C142.86123676 1825.66503679 143.77325478 1825.92968296 144.7129097 1826.20234871 C152.96519502 1828.59720669 161.21686424 1830.99418201 169.46813965 1833.39251709 C173.20784904 1834.47946502 176.9478725 1835.56532364 180.68811035 1836.65045166 C185.34805711 1838.0026536 190.00707891 1839.35800235 194.66550064 1840.71544838 C196.40082612 1841.22061283 198.13643832 1841.72479362 199.87237167 1842.22786522 C209.26284737 1844.94996963 218.58714627 1847.78679846 227.84216309 1850.94132996 C232.31392783 1852.44049648 236.83158646 1853.73846764 241.375 1855 C243.18895324 1855.51118267 245.00275359 1856.02290815 246.81640625 1856.53515625 C247.69570801 1856.78281738 248.57500977 1857.03047852 249.48095703 1857.28564453 C253.09882652 1858.31160752 256.70642701 1859.37093355 260.3125 1860.4375 C275.71033239 1864.98357957 291.12322578 1869.47568908 306.56420898 1873.87304688 C313.20060146 1875.76537436 319.82287346 1877.70254489 326.44140625 1879.65625 C340.46342604 1883.79420353 354.5034663 1887.86876064 368.56420898 1891.87304688 C375.20060146 1893.76537436 381.82287346 1895.70254489 388.44140625 1897.65625 C402.46342604 1901.79420353 416.5034663 1905.86876064 430.56420898 1909.87304688 C437.20060146 1911.76537436 443.82287346 1913.70254489 450.44140625 1915.65625 C464.46342604 1919.79420353 478.5034663 1923.86876064 492.56420898 1927.87304688 C498.50257285 1929.56633569 504.43078543 1931.29128421 510.35302734 1933.04003906 C517.44361762 1935.13374975 524.5410025 1937.20393789 531.6394043 1939.27099609 C536.79397482 1940.77220146 541.94732194 1942.2772871 547.09765625 1943.79296875 C556.66622154 1946.60433937 566.2413746 1949.35717385 575.875 1951.9375 C585.118581 1954.41826165 594.25583654 1957.19297178 603.39355469 1960.03662109 C611.80514269 1962.64948154 620.25060871 1965.10970611 628.7265625 1967.50390625 C634.49479543 1969.13377501 640.24742565 1970.81583855 646 1972.5 C653.63851984 1974.73451367 661.28297137 1976.94595301 668.9375 1979.125 C676.45023866 1981.26441689 683.94960893 1983.44476851 691.44140625 1985.65625 C705.46342604 1989.79420353 719.5034663 1993.86876064 733.56420898 1997.87304688 C740.20060146 1999.76537436 746.82287346 2001.70254489 753.44140625 2003.65625 C767.46342604 2007.79420353 781.5034663 2011.86876064 795.56420898 2015.87304688 C802.20060146 2017.76537436 808.82287346 2019.70254489 815.44140625 2021.65625 C829.46342604 2025.79420353 843.5034663 2029.86876064 857.56420898 2033.87304688 C863.50257285 2035.56633569 869.43078543 2037.29128421 875.35302734 2039.04003906 C884.51969096 2041.74677303 893.69774397 2044.41446772 902.87402344 2047.08837891 C905.9606894 2047.98853594 909.04683195 2048.890465 912.1328125 2049.79296875 C922.60120845 2052.85319448 933.07645962 2055.88629019 943.56591797 2058.87353516 C950.20174125 2060.76569782 956.8234418 2062.70271266 963.44140625 2064.65625 C977.46342604 2068.79420353 991.5034663 2072.86876064 1005.56420898 2076.87304688 C1012.20060146 2078.76537436 1018.82287346 2080.70254489 1025.44140625 2082.65625 C1039.46342604 2086.79420353 1053.5034663 2090.86876064 1067.56420898 2094.87304688 C1074.20060146 2096.76537436 1080.82287346 2098.70254489 1087.44140625 2100.65625 C1101.46342604 2104.79420353 1115.5034663 2108.86876064 1129.56420898 2112.87304688 C1136.20060146 2114.76537436 1142.82287346 2116.70254489 1149.44140625 2118.65625 C1163.46342604 2122.79420353 1177.5034663 2126.86876064 1191.56420898 2130.87304688 C1197.50257285 2132.56633569 1203.43078543 2134.29128421 1209.35302734 2136.04003906 C1216.44361762 2138.13374975 1223.5410025 2140.20393789 1230.6394043 2142.27099609 C1235.79397482 2143.77220146 1240.94732194 2145.2772871 1246.09765625 2146.79296875 C1255.66622154 2149.60433937 1265.2413746 2152.35717385 1274.875 2154.9375 C1284.118581 2157.41826165 1293.25583654 2160.19297178 1302.39355469 2163.03662109 C1310.80514269 2165.64948154 1319.25060871 2168.10970611 1327.7265625 2170.50390625 C1333.49479543 2172.13377501 1339.24742565 2173.81583855 1345 2175.5 C1352.63851984 2177.73451367 1360.28297137 2179.94595301 1367.9375 2182.125 C1375.45023866 2184.26441689 1382.94960893 2186.44476851 1390.44140625 2188.65625 C1404.46342604 2192.79420353 1418.5034663 2196.86876064 1432.56420898 2200.87304688 C1439.20060146 2202.76537436 1445.82287346 2204.70254489 1452.44140625 2206.65625 C1466.46342604 2210.79420353 1480.5034663 2214.86876064 1494.56420898 2218.87304688 C1501.20060146 2220.76537436 1507.82287346 2222.70254489 1514.44140625 2224.65625 C1528.46342604 2228.79420353 1542.5034663 2232.86876064 1556.56420898 2236.87304688 C1562.50257285 2238.56633569 1568.43078543 2240.29128421 1574.35302734 2242.04003906 C1581.44361762 2244.13374975 1588.5410025 2246.20393789 1595.6394043 2248.27099609 C1600.79397482 2249.77220146 1605.94732194 2251.2772871 1611.09765625 2252.79296875 C1620.66622154 2255.60433937 1630.2413746 2258.35717385 1639.875 2260.9375 C1649.118581 2263.41826165 1658.25583654 2266.19297178 1667.39355469 2269.03662109 C1675.80514269 2271.64948154 1684.25060871 2274.10970611 1692.7265625 2276.50390625 C1698.49479969 2278.13377621 1704.24731129 2279.81621902 1710 2281.5 C1713.00032794 2282.37571358 1716.00085552 2283.25073936 1719.00146484 2284.12548828 C1721.02023851 2284.71425618 1723.03878923 2285.30378902 1725.05712891 2285.89404297 C1727.97442435 2286.74592149 1730.89323582 2287.59239638 1733.8125 2288.4375 C1734.69615234 2288.69660156 1735.57980469 2288.95570313 1736.49023438 2289.22265625 C1737.30427734 2289.45726563 1738.11832031 2289.691875 1738.95703125 2289.93359375 C1739.66835205 2290.14040771 1740.37967285 2290.34722168 1741.11254883 2290.56030273 C1743.16396265 2291.11344157 1743.16396265 2291.11344157 1746 2291 C1746.00550308 2242.27221682 1746.01077211 2193.54443362 1746.01586914 2144.81665039 C1746.01596894 2143.86277159 1746.01606874 2142.90889279 1746.01617156 2141.92610857 C1746.0268784 2039.5292253 1746.03609626 1937.13234202 1746.04234314 1834.73545837 C1746.04248259 1832.45576497 1746.04262204 1830.17607157 1746.04276149 1827.89637816 C1746.04568544 1780.02392316 1746.04840202 1732.15146814 1746.05087968 1684.27901312 C1746.05212488 1660.22392946 1746.05340985 1636.1688458 1746.05473244 1612.11376215 C1746.05493169 1608.48559719 1746.05512981 1604.85743223 1746.05532788 1601.22926727 C1746.05838062 1545.49319706 1746.06227565 1489.75712707 1746.06866455 1434.02105713 C1746.0688699 1432.22940734 1746.0688699 1432.22940734 1746.0690794 1430.40156261 C1746.07129121 1411.14908757 1746.07357503 1391.89661254 1746.07586844 1372.64413752 C1746.08248928 1317.05483166 1746.08856004 1261.46552597 1746.09113979 1205.87621975 C1746.09119333 1204.72818417 1746.09124686 1203.58014858 1746.09130202 1202.39732404 C1746.09246896 1177.16883231 1746.09336327 1151.94034058 1746.09400098 1126.71184883 C1746.09426253 1116.55407371 1746.09456316 1106.3962986 1746.09487724 1096.23852348 C1746.09491067 1095.12693873 1746.0949441 1094.01535397 1746.09497854 1092.87008482 C1746.09606715 1057.31178221 1746.10031119 1021.75348087 1746.10628221 986.19517877 C1746.11230379 950.24700317 1746.11508388 914.2988288 1746.11362399 878.35065269 C1746.11342103 873.33386675 1746.1132536 868.31708081 1746.11310768 863.30029488 C1746.1130778 862.31723307 1746.11304792 861.33417127 1746.11301713 860.32131971 C1746.11266544 845.94733971 1746.115091 831.57336215 1746.11920547 817.19938278 C1746.1251067 796.06175864 1746.12670115 774.92413853 1746.12025452 753.78651428 C1746.1198905 752.550781 1746.1198905 752.550781 1746.11951914 751.29008341 C1746.10029949 689.52251304 1745.71624698 627.76370016 1745 566 C1740.89469219 564.78418008 1736.7893658 563.56842291 1732.68403625 562.35267639 C1731.53082776 562.01114359 1730.37761926 561.6696108 1729.18946505 561.31772852 C1720.22561816 558.66323723 1711.26095684 556.01156291 1702.29296875 553.37109375 C1701.20589158 553.05102262 1701.20589158 553.05102262 1700.09685326 552.7244854 C1682.60088228 547.57536897 1665.08347681 542.50075886 1647.5625 537.4375 C1646.78057156 537.21153137 1645.99864311 536.98556274 1645.19301987 536.75274658 C1642.79494642 536.05975043 1640.39686417 535.36678476 1637.9987793 534.67382812 C1635.55995989 533.96909306 1633.12114304 533.26434918 1630.68233299 532.55958176 C1629.03702538 532.08412123 1627.39171209 531.60868032 1625.7463932 531.13325882 C1606.26077051 525.50232364 1586.78454732 519.83913108 1567.30887985 514.17387772 C1559.11358789 511.78999913 1550.91815278 509.40661272 1542.72265625 507.0234375 C1541.39314532 506.63682166 1541.39314532 506.63682166 1540.03677559 506.2423954 C1523.21890028 501.35208987 1506.39747544 496.47408992 1489.57461548 491.60096359 C1463.39983961 484.01879355 1437.22975272 476.4205933 1411.0625 468.8125 C1409.71411482 468.42046576 1409.71411482 468.42046576 1408.33848953 468.02051163 C1393.6335204 463.74511599 1378.9287707 459.46896586 1364.2240448 455.19273376 C1350.46196529 451.19063803 1336.69981019 447.18880241 1322.9375 443.1875 C1322.03720692 442.925741 1321.13691383 442.66398201 1320.20933914 442.39429092 C1294.26223058 434.85029993 1268.31164983 427.31840652 1242.35714722 419.79989624 C1216.97484129 412.44698782 1191.5990002 405.07193257 1166.2243042 397.69281006 C1142.00980869 390.6511412 1117.79327064 383.61664531 1093.57149124 376.60007095 C1067.39779739 369.018058 1041.22871287 361.42029097 1015.0625 353.8125 C1014.16357655 353.55114384 1013.26465309 353.28978767 1012.33848953 353.02051163 C997.6335204 348.74511599 982.9287707 344.46896586 968.2240448 340.19273376 C954.46196529 336.19063803 940.69981019 332.18880241 926.9375 328.1875 C926.03720692 327.925741 925.13691383 327.66398201 924.20933914 327.39429092 C898.26223058 319.85029993 872.31164983 312.31840652 846.35714722 304.79989624 C820.97588173 297.44728922 795.60104533 290.07265699 770.22742844 282.6937027 C745.17601295 275.40847357 720.12177725 268.13313972 695.0625 260.875 C669.69342296 253.52713023 644.33254151 246.15138268 618.97483063 238.76438904 C595.30054251 231.86788974 571.62237337 224.98505899 547.9375 218.125 C521.95374117 210.59909452 495.97559972 203.05401817 470 195.5 C444.860306 188.18915226 419.71878189 180.88474776 394.57149124 173.60007095 C368.39779739 166.018058 342.22871287 158.42029097 316.0625 150.8125 C315.16357655 150.55114384 314.26465309 150.28978767 313.33848953 150.02051163 C298.6335204 145.74511599 283.9287707 141.46896586 269.2240448 137.19273376 C256.36739355 133.45394203 243.51068501 129.71534739 230.65382767 125.9772644 C228.84464923 125.45125101 227.0354731 124.92522971 225.22629929 124.39920044 C205.80254003 118.75164576 186.37801131 113.1067806 166.94921875 107.4765625 C166.19224764 107.25719339 165.43527653 107.03782429 164.6553669 106.81180763 C157.35736 104.69693289 150.0591601 102.58272704 142.76045322 100.4702692 C129.22459001 96.55239017 115.69231013 92.62324617 102.171875 88.65234375 C99.88655716 87.98201097 97.60123819 87.31168207 95.31591797 86.64135742 C91.14690493 85.41824617 86.97948956 84.18988861 82.81298828 82.95825195 C80.99777341 82.42511571 79.18250978 81.89214541 77.3671875 81.359375 C76.55215759 81.11674423 75.73712769 80.87411346 74.8973999 80.62413025 C71.8365331 79.72946046 69.20695658 79 66 79 Z " fill="#5E4F00" transform="translate(19,21)"/>
<path d="M0 0 C185.79 0 371.58 0 563 0 C563 40.26 563 80.52 563 122 C423.08 122 283.16 122 139 122 C139 211.1 139 300.2 139 392 C211.27 392 283.54 392 358 392 C357.67 391.01 357.34 390.02 357 389 C403.2 389 449.4 389 497 389 C500.67577547 402.47784338 504.28984859 415.91956283 507.60986328 429.48046875 C509.29380787 436.34435501 511.02300558 443.18378149 512.9921875 449.97265625 C515.19835588 457.57883776 517.10942836 465.24874452 519 472.9375 C522.18280716 485.84745074 525.51826549 498.70366715 529.07861328 511.515625 C532.29793964 523.12861316 535.23811214 534.80439914 538.10839844 546.50756836 C539.62186173 552.65457614 541.19437008 558.77167 542.9609375 564.8515625 C545.36409295 573.13806348 547.42979626 581.50064642 549.5 589.875 C549.88128399 591.4102125 550.26279375 592.94536895 550.64453125 594.48046875 C551.39820304 597.51222887 552.15050179 600.54432477 552.90185547 603.57666016 C553.79308803 607.17084828 554.69084768 610.76336166 555.59140015 614.35522461 C564.43494625 649.63841842 570.36383417 685.1402473 575.5802002 721.10894775 C576.02804739 724.19315512 576.47824042 727.27701459 576.92871094 730.36083984 C577.73748132 735.90199226 578.54114003 741.44386584 579.34109497 746.98629761 C579.65187071 749.13790707 579.96359591 751.28937963 580.27633667 753.44070435 C583.42251374 775.1206241 583.42251374 775.1206241 584 785 C585.32 785 586.64 785 588 785 C588.03867188 783.35644531 588.03867188 783.35644531 588.078125 781.6796875 C588.7499171 760.97465339 591.80049833 740.40473948 595.60473633 720.05932617 C596.54894087 714.94814447 597.27729948 709.85006305 597.88671875 704.6875 C599.10329579 694.5189264 600.88736745 684.45397997 602.6875 674.375 C602.86196655 673.3932077 603.03643311 672.41141541 603.21618652 671.39987183 C606.8963753 650.77863667 611.24051486 630.44317662 617.06738281 610.30981445 C618.35023343 605.75703805 619.44281668 601.17194514 620.5 596.5625 C622.19880189 589.29373839 624.00995671 582.07830434 625.96875 574.875 C627.21595416 570.24670331 628.35161575 565.59108893 629.5 560.9375 C630.91906093 555.19545415 632.39848128 549.48974035 634.0625 543.8125 C635.72910852 538.11269886 637.10664084 532.38279472 638.42993164 526.59692383 C639.64402713 521.35389101 641.02931795 516.1764653 642.5 511 C644.36562445 504.42775265 646.02377877 497.83499606 647.55297852 491.17700195 C648.88180485 485.41786462 650.3876332 479.71661632 651.93359375 474.01171875 C653.18414365 469.35656733 654.3402006 464.67843065 655.5 460 C657.24951728 452.94823216 659.07577564 445.92484753 660.96875 438.91015625 C662.20700946 434.26789251 663.34791663 429.60173442 664.5 424.9375 C666.19430308 418.08791469 667.99635963 411.2954278 670.0078125 404.53125 C671.45373022 399.38514915 672.70355618 394.18577529 674 389 C725.15 389 776.3 389 829 389 C831.21140378 396.73991323 833.24200525 404.51840192 835.25 412.3125 C835.45008667 413.08811279 835.65017334 413.86372559 835.85632324 414.6628418 C838.72577435 425.80495081 841.43620754 436.97108445 843.97167969 448.19458008 C845.53556796 455.08866636 847.260928 461.91882557 849.10644531 468.7421875 C851.20191882 476.5759832 852.9729757 484.48005044 854.76953125 492.38671875 C856.23376615 498.79180784 857.78439717 505.15780371 859.5 511.5 C861.82043311 520.07811723 863.80072941 528.72199186 865.76953125 537.38671875 C867.23376615 543.79180784 868.78439717 550.15780371 870.5 556.5 C872.81964282 565.0751957 874.79968943 573.71603656 876.76733398 582.37792969 C878.25109577 588.86968538 879.82656177 595.32126041 881.5625 601.75 C883.57896722 609.22666229 885.36193927 616.73950742 887.03735352 624.29980469 C888.02153548 628.73056686 889.03192778 633.15157454 890.11572266 637.55908203 C893.32842301 650.67488423 896.00078169 663.83309049 898.375 677.125 C898.56465332 678.17718719 898.75430664 679.22937439 898.94970703 680.31344604 C911.22807525 748.73603541 911.22807525 748.73603541 911.09765625 769.47265625 C911.09443359 770.39111328 911.09121094 771.30957031 911.08789062 772.25585938 C911.07951172 773.18205078 911.07113281 774.10824219 911.0625 775.0625 C911.05798828 776.02349609 911.05347656 776.98449219 911.04882812 777.97460938 C911.03717706 780.31647422 911.02082025 782.65820181 911 785 C912.65 785 914.3 785 916 785 C916.05607422 783.54207031 916.05607422 783.54207031 916.11328125 782.0546875 C916.79422342 766.99417629 918.94575803 752.17934057 921.45288086 737.32543945 C922.06213271 733.62235178 922.62998485 729.91367882 923.19140625 726.203125 C929.80794087 682.68471822 937.94099504 639.62386175 949.82177734 597.21826172 C951.40265798 591.57352733 952.92191146 585.91255862 954.4375 580.25 C956.84756896 571.27131171 959.27665438 562.29819157 961.73022461 553.33129883 C963.07220366 548.42076456 964.40251896 543.50734755 965.71875 538.58984375 C968.44373668 528.41126116 971.19040875 518.24539471 974.125 508.125 C976.31842343 500.55347795 978.30175314 492.94909739 980.18066406 485.29394531 C981.67454784 479.23025438 983.2948322 473.2124836 984.98681641 467.20141602 C986.85285644 460.5639734 988.6503696 453.90908991 990.4375 447.25 C994.65312371 431.56186561 998.87285206 415.87654228 1003.3125 400.25 C1003.56717041 399.34983154 1003.82184082 398.44966309 1004.08422852 397.5222168 C1004.32069092 396.6950415 1004.55715332 395.86786621 1004.80078125 395.015625 C1005.00872314 394.28633789 1005.21666504 393.55705078 1005.4309082 392.80566406 C1006 391 1006 391 1007 389 C1052.21 389 1097.42 389 1144 389 C1140.60565293 404.84028632 1140.60565293 404.84028632 1138.3125 411.625 C1135.69118149 419.65823506 1133.30760746 427.74632672 1131 435.875 C1130.48518066 437.68834839 1130.48518066 437.68834839 1129.95996094 439.53833008 C1129.28355147 441.92523172 1128.60791436 444.31235239 1127.93310547 446.69970703 C1126.64962736 451.23923008 1125.35759436 455.77627944 1124.0625 460.3125 C1123.71336548 461.53779419 1123.71336548 461.53779419 1123.35717773 462.7878418 C1121.88144024 467.95513737 1120.38404207 473.11576633 1118.875 478.2734375 C1118.10370053 480.9113223 1117.33290999 483.54935529 1116.5625 486.1875 C1116.36942261 486.8483963 1116.17634521 487.5092926 1115.97741699 488.19021606 C1113.30604404 497.34747366 1110.75424627 506.52829251 1108.3125 515.75 C1106.18516957 523.77512491 1103.90068814 531.70844229 1101.33911133 539.60498047 C1097.91962015 550.21812629 1094.96563534 560.97115212 1091.93310547 571.69970703 C1090.64962736 576.23923008 1089.35759436 580.77627944 1088.0625 585.3125 C1087.71336548 586.53779419 1087.71336548 586.53779419 1087.35717773 587.7878418 C1085.88144024 592.95513737 1084.38404207 598.11576633 1082.875 603.2734375 C1082.10370053 605.9113223 1081.33290999 608.54935529 1080.5625 611.1875 C1080.36942261 611.8483963 1080.17634521 612.5092926 1079.97741699 613.19021606 C1077.30604404 622.34747366 1074.75424627 631.52829251 1072.3125 640.75 C1070.18516957 648.77512491 1067.90068814 656.70844229 1065.33911133 664.60498047 C1061.91962015 675.21812629 1058.96563534 685.97115212 1055.93310547 696.69970703 C1054.64962736 701.23923008 1053.35759436 705.77627944 1052.0625 710.3125 C1051.71336548 711.53779419 1051.71336548 711.53779419 1051.35717773 712.7878418 C1049.88144024 717.95513737 1048.38404207 723.11576633 1046.875 728.2734375 C1046.10370053 730.9113223 1045.33290999 733.54935529 1044.5625 736.1875 C1044.36942261 736.8483963 1044.17634521 737.5092926 1043.97741699 738.19021606 C1041.30604621 747.34746623 1038.75394358 756.5282169 1036.3125 765.75 C1034.17280073 773.83148423 1031.85507664 781.80916915 1029.2644043 789.7565918 C1027.15785127 796.30113497 1025.37743705 802.91540961 1023.625 809.5625 C1021.32962247 818.25101341 1018.87297255 826.86152946 1016.1875 835.4375 C1012.90824052 845.91639755 1009.81917738 856.44040919 1006.8125 867 C1006.49061707 868.12965683 1006.49061707 868.12965683 1006.16223145 869.28213501 C1003.50842305 878.60441314 1000.86500577 887.93027479 998.35668945 897.29296875 C997.10687913 901.89312087 997.10687913 901.89312087 996 903 C994.02571766 903.0966888 992.04792169 903.12187075 990.0712738 903.12025452 C988.13816345 903.12231651 988.13816345 903.12231651 986.16600037 903.12442017 C984.72451759 903.12088055 983.28303505 903.11724573 981.84155273 903.11352539 C980.33403526 903.11324353 978.82651764 903.11340123 977.31900024 903.1139679 C973.21380656 903.11425591 969.10864185 903.10835861 965.00345492 903.10139394 C960.7179674 903.09516099 956.43247928 903.09455665 952.14698792 903.09336853 C944.02613348 903.09025504 935.90529244 903.08204141 927.78444391 903.07201904 C918.54155126 903.06085845 909.29865798 903.05534759 900.05576026 903.05032361 C881.0371659 903.03985881 862.01858403 903.02225903 843 903 C842.75191086 901.80442978 842.50382172 900.60885956 842.24821472 899.37705994 C841.30503204 894.83462326 840.35902802 890.29277759 839.41227722 885.75108337 C839.00705729 883.80533482 838.60254876 881.85943794 838.19883728 879.91337585 C835.39968 866.42347437 832.44724276 852.97837089 829.3125 839.5625 C828.9122426 837.84640446 828.5120045 836.13030442 828.11178589 834.41419983 C827.93398024 833.65244477 827.75617458 832.89068972 827.57298088 832.10585117 C824.84999991 820.4324638 822.31735816 808.72333219 819.84375 796.99462891 C818.07625357 788.6184996 816.28874396 780.24661291 814.5 771.875 C814.30522064 770.96274658 814.11044128 770.05049316 813.90975952 769.1105957 C811.41140358 757.42119537 808.83094373 745.75922603 806.09106445 734.1237793 C804.31038309 726.50570401 802.73187126 718.85657067 801.1875 711.1875 C798.08541783 695.8572369 794.3380104 680.7020381 790.5947113 665.51876831 C788.20085498 655.78621551 785.97657232 646.01530922 783.74462891 636.24462891 C782.36717902 630.24256037 780.96378769 624.2465396 779.5625 618.25 C779.26972168 616.99646729 778.97694336 615.74293457 778.67529297 614.45141602 C778.08066551 611.90573857 777.48593855 609.36008436 776.89111328 606.81445312 C775.13261336 599.28710988 773.37689214 591.75911801 771.62084961 584.23120117 C770.18876186 578.09260221 768.75573657 571.95422599 767.3203125 565.81640625 C766.03013475 560.29867899 764.74317324 554.7802113 763.45889282 549.2611084 C762.58591685 545.51085197 761.71030109 541.76122748 760.83203125 538.01220703 C759.79640925 533.5910797 758.76502939 529.1689789 757.73602295 524.74630737 C757.33256032 523.01544022 756.9276809 521.28490263 756.52130127 519.55471802 C755.95047075 517.12329222 755.38484611 514.69070692 754.8203125 512.2578125 C754.65084106 511.5413002 754.48136963 510.8247879 754.3067627 510.08656311 C753.2276664 505.40511858 752.52945187 500.77577631 752 496 C750.35 496 748.7 496 747 496 C746.90847656 497.30839844 746.81695313 498.61679688 746.72265625 499.96484375 C745.95045406 507.62374651 744.14212097 515.07007781 742.4375 522.5625 C742.07728393 524.16532189 741.71726132 525.76818727 741.35742188 527.37109375 C738.85851318 538.45070734 736.2150379 549.49229706 733.50292969 560.52139282 C730.6430196 572.15884128 728.00355153 583.83641322 725.43463135 595.54122925 C723.19343952 605.74465063 720.85670393 615.91432453 718.375 626.0625 C715.90579671 636.16152766 713.56756118 646.28000198 711.33496094 656.43383789 C708.48606672 669.38174473 705.51576949 682.30138221 702.55131531 695.22320557 C701.35733921 700.43094752 700.17271218 705.64075662 698.9921875 710.8515625 C695.56627246 725.95669525 692.05031959 741.03320695 688.36624146 756.07757568 C685.84783333 766.37020021 683.48068782 776.68884189 681.21826172 787.04101562 C679.15045955 796.45308066 676.88858492 805.81262225 674.60302734 815.17382812 C672.65731467 823.17916823 670.82138539 831.20169438 669.0625 839.25 C666.50806586 850.92468437 663.73376063 862.53847615 660.89086914 874.14550781 C658.53818971 883.75223234 656.26564423 893.37101202 654 903 C604.17 903 554.34 903 503 903 C496.12359551 880.07865169 496.12359551 880.07865169 493.375 870.125 C491.64805285 863.90147349 489.9135293 857.68080627 488.13452148 851.47192383 C486.11891927 844.42465204 484.12541084 837.37131023 482.13671875 830.31640625 C481.21955098 827.06846306 480.30214002 823.82058877 479.38458538 820.57275486 C478.44575931 817.24910068 477.5077471 813.92522109 476.5715332 810.60083008 C475.47077557 806.69280973 474.36754626 802.78549507 473.26171875 798.87890625 C473.08014095 798.23739246 472.89856316 797.59587868 472.711483 796.93492508 C470.36681351 788.66431699 467.93476714 780.42732797 465.39453125 772.21484375 C462.65262719 763.33670912 460.18054316 754.405528 457.7948761 745.4256897 C454.25685463 732.13446142 450.49657032 718.90691255 446.73876953 705.67651367 C445.70424136 702.03388929 444.67333755 698.39025007 443.64329529 694.74635506 C439.98520479 681.81140025 436.31637378 668.88573065 432.34375 656.04296875 C429.59340775 647.14357648 427.11916114 638.18824535 424.7265625 629.18661499 C421.30637481 616.33218101 417.67810574 603.53775391 414.04681396 590.74163818 C413.49890864 588.80864972 412.95254523 586.87523233 412.40673828 584.94165039 C408.51376984 571.1505442 404.552751 557.38894303 400.34178162 543.6913147 C398.10257703 536.39267089 396.01865782 529.06775821 394.0625 521.6875 C393.76021484 520.56794922 393.45792969 519.44839844 393.14648438 518.29492188 C391 510.2687252 391 510.2687252 391 508 C307.84 508 224.68 508 139 508 C139 650.56 139 793.12 139 940 C93.13 940 47.26 940 0 940 C0 629.8 0 319.6 0 0 Z " fill="#5E4F00" transform="translate(444,951)"/>
<path d="M0 0 C185.79 0 371.58 0 563 0 C563 40.26 563 80.52 563 122 C423.08 122 283.16 122 139 122 C139 211.1 139 300.2 139 392 C211.27 392 283.54 392 358 392 C358.33 393.98 358.66 395.96 359 398 C284.09 398 209.18 398 132 398 C132 304.61 132 211.22 132 115 C271.92 115 411.84 115 556 115 C556 79.03 556 43.06 556 6 C374.83 6 193.66 6 7 6 C7 311.91 7 617.82 7 933 C48.58 933 90.16 933 133 933 C133 790.77 133 648.54 133 502 C217.48 502 301.96 502 389 502 C389.66 503.98 390.32 505.96 391 508 C307.84 508 224.68 508 139 508 C139 650.56 139 793.12 139 940 C93.13 940 47.26 940 0 940 C0 629.8 0 319.6 0 0 Z " fill="#746500" transform="translate(444,951)"/>
</svg>
